<svg width="16" height="16" version="1.1" viewBox="0 0 16 16" xmlns="http://www.w3.org/2000/svg">
<g transform="translate(0 -1036.4)">
<path transform="translate(0 1036.4)" d="m2.1445 1.5762-0.70312 0.70898 4.0098 3.9746h-0.82812v1h2.3203a2.3315 2.3315 0 0 0-0.51172 1.459 2.3315 2.3315 0 0 0 2.3301 2.332 2.3315 2.3315 0 0 0 1.6152-0.6543l-2.4551 2.4785 0.70898 0.70508 4.9727-5.0176-0.71094-0.70312-2.4219 2.4434a2.3315 2.3315 0 0 0 0.62305-1.584 2.3315 2.3315 0 0 0-2.332-2.332 2.3315 2.3315 0 0 0-1.5996 0.64062l-0.0019532-0.47852 0.0019532-0.0019531-0.0019532-0.0019531-0.0078124-1.7734h-1l0.0039062 0.77734-4.0117-3.9727zm6.6172 5.5879a1.5543 1.5543 0 0 1 1.5547 1.5547 1.5543 1.5543 0 0 1-1.5547 1.5547 1.5543 1.5543 0 0 1-1.5527-1.5547 1.5543 1.5543 0 0 1 1.5527-1.5547z" fill="#fc9c9c" fill-opacity=".99608"/>
</g>
</svg>
