<?xml version="1.0" encoding="UTF-8" standalone="no"?>
<!-- Created with Inkscape (http://www.inkscape.org/) -->

<svg
   xmlns:dc="http://purl.org/dc/elements/1.1/"
   xmlns:cc="http://creativecommons.org/ns#"
   xmlns:rdf="http://www.w3.org/1999/02/22-rdf-syntax-ns#"
   xmlns:svg="http://www.w3.org/2000/svg"
   xmlns="http://www.w3.org/2000/svg"
   xmlns:sodipodi="http://sodipodi.sourceforge.net/DTD/sodipodi-0.dtd"
   xmlns:inkscape="http://www.inkscape.org/namespaces/inkscape"
   width="16"
   height="16"
   viewBox="0 0 16 16"
   id="svg2"
   version="1.1"
   inkscape:version="0.92.3 (2405546, 2018-03-11)"
   inkscape:export-filename="/home/djrm/Projects/godot/tools/editor/icons/icon_node_2d.png"
   inkscape:export-xdpi="90"
   inkscape:export-ydpi="90"
   sodipodi:docname="icon_spring_arm.svg">
  <defs
     id="defs4" />
  <sodipodi:namedview
     id="base"
     pagecolor="#ffffff"
     bordercolor="#666666"
     borderopacity="1.0"
     inkscape:pageopacity="0.0"
     inkscape:pageshadow="2"
     inkscape:zoom="31.999999"
     inkscape:cx="10.616154"
     inkscape:cy="10.546423"
     inkscape:document-units="px"
     inkscape:current-layer="layer1"
     showgrid="true"
     units="px"
     inkscape:snap-bbox="true"
     inkscape:bbox-paths="true"
     inkscape:bbox-nodes="true"
     inkscape:snap-bbox-edge-midpoints="true"
     inkscape:snap-bbox-midpoints="true"
     inkscape:snap-object-midpoints="true"
     inkscape:snap-center="true"
     inkscape:window-width="1920"
     inkscape:window-height="1017"
     inkscape:window-x="-8"
     inkscape:window-y="-8"
     inkscape:window-maximized="1"
     inkscape:snap-nodes="false"
     inkscape:snap-grids="false"
     inkscape:snap-global="true">
    <inkscape:grid
       type="xygrid"
       id="grid3336"
       empspacing="4" />
  </sodipodi:namedview>
  <metadata
     id="metadata7">
    <rdf:RDF>
      <cc:Work
         rdf:about="">
        <dc:format>image/svg+xml</dc:format>
        <dc:type
           rdf:resource="http://purl.org/dc/dcmitype/StillImage" />
        <dc:title></dc:title>
      </cc:Work>
    </rdf:RDF>
  </metadata>
  <g
     inkscape:label="Layer 1"
     inkscape:groupmode="layer"
     id="layer1"
     transform="translate(0,-1036.3622)">
    <path
       style="opacity:1;fill:#fc9c9c;fill-opacity:0.99607843;stroke:none;stroke-width:1.16572821;stroke-linecap:round;stroke-linejoin:round;stroke-miterlimit:4;stroke-dasharray:none;stroke-dashoffset:0;stroke-opacity:1"
       d="M 2.1445312 1.5761719 L 1.4414062 2.2851562 L 5.4511719 6.2597656 L 4.6230469 6.2597656 L 4.6230469 7.2597656 L 6.9433594 7.2597656 A 2.3314563 2.3314563 0 0 0 6.4316406 8.71875 A 2.3314563 2.3314563 0 0 0 8.7617188 11.050781 A 2.3314563 2.3314563 0 0 0 10.376953 10.396484 L 7.921875 12.875 L 8.6308594 13.580078 L 13.603516 8.5625 L 12.892578 7.859375 L 10.470703 10.302734 A 2.3314563 2.3314563 0 0 0 11.09375 8.71875 A 2.3314563 2.3314563 0 0 0 8.7617188 6.3867188 A 2.3314563 2.3314563 0 0 0 7.1621094 7.0273438 L 7.1601562 6.5488281 L 7.1621094 6.546875 L 7.1601562 6.5449219 L 7.1523438 4.7714844 L 6.1523438 4.7714844 L 6.15625 5.5488281 L 2.1445312 1.5761719 z M 8.7617188 7.1640625 A 1.5543042 1.5543042 0 0 1 10.316406 8.71875 A 1.5543042 1.5543042 0 0 1 8.7617188 10.273438 A 1.5543042 1.5543042 0 0 1 7.2089844 8.71875 A 1.5543042 1.5543042 0 0 1 8.7617188 7.1640625 z "
       transform="translate(0,1036.3622)"
       id="path4154" />
  </g>
</svg>
